<?xml version="1.0" standalone="no"?>
<!DOCTYPE svg PUBLIC "-//W3C//DTD SVG 20010904//EN"
 "http://www.w3.org/TR/2001/REC-SVG-20010904/DTD/svg10.dtd">
<svg version="1.0" xmlns="http://www.w3.org/2000/svg"
 width="300.000000pt" height="173.000000pt" viewBox="0 0 300.000000 173.000000"
 preserveAspectRatio="xMidYMid meet">
<metadata>
Created by potrace 1.10, written by Peter Selinger 2001-2011
</metadata>
<g transform="translate(0.000000,173.000000) scale(0.100000,-0.100000)"
fill="white" stroke="none">
<path d="M1780 1570 c-18 -18 -20 -33 -20 -140 l0 -120 -50 0 c-66 0 -187 -25
-268 -56 -235 -88 -404 -289 -458 -543 -20 -95 -18 -144 6 -166 30 -27 71 -22
95 11 106 152 276 228 543 242 l132 7 0 -122 c0 -119 0 -122 26 -142 15 -12
34 -21 42 -21 9 0 130 114 269 252 220 219 253 256 253 283 0 26 -33 64 -253
283 -264 264 -276 273 -317 232z m298 -263 c144 -145 232 -240 232 -252 0 -23
-462 -485 -484 -485 -21 0 -26 23 -26 124 0 81 -3 97 -22 121 l-21 28 -126 -6
c-69 -3 -136 -8 -149 -11 -216 -50 -320 -108 -420 -235 -12 -16 -25 -22 -35
-18 -23 9 -22 64 3 163 77 299 293 482 624 529 134 19 140 25 144 153 4 114 6
122 29 122 10 0 121 -103 251 -233z"/>
<path d="M1867 1372 c-11 -12 -17 -36 -17 -63 0 -68 -10 -74 -137 -87 -254
-25 -455 -138 -557 -312 -43 -73 -50 -104 -30 -124 21 -22 32 -20 109 14 127
57 302 90 476 90 119 0 139 -12 139 -83 0 -47 22 -87 47 -87 17 0 278 251 315
302 13 19 17 35 13 49 -10 32 -301 319 -323 319 -11 0 -26 -8 -35 -18z m180
-161 l153 -156 -158 -158 -158 -158 0 75 c1 106 -4 110 -148 114 -196 7 -405
-34 -533 -104 -35 -18 -63 -31 -63 -28 0 28 77 142 136 200 115 115 261 174
465 189 52 4 101 9 110 11 27 8 42 59 35 119 -3 30 -3 54 1 54 5 -1 77 -72
160 -158z"/>
<path d="M672 1184 l-22 -15 0 -484 c0 -426 2 -485 16 -499 14 -14 87 -16 653
-16 605 0 639 1 654 18 26 28 24 192 -1 215 -48 44 -112 5 -112 -68 l0 -45
-545 0 -545 0 0 390 0 390 100 0 c87 0 103 3 120 20 11 11 20 31 20 45 0 14
-9 34 -20 45 -18 18 -33 20 -158 20 -108 0 -142 -3 -160 -16z m285 -40 c9 -25
-16 -34 -98 -34 -125 0 -117 28 -121 -428 l-3 -384 28 -24 28 -24 530 0 530 0
24 25 c14 13 25 34 25 47 0 32 15 52 34 45 12 -5 16 -21 16 -69 0 -35 -4 -69
-9 -76 -6 -11 -127 -13 -621 -13 -368 0 -616 3 -622 9 -15 15 -11 924 5 934 6
4 65 8 130 8 99 0 119 -3 124 -16z"/>
</g>
</svg>
